<?xml version="1.0" standalone="no"?>
<!DOCTYPE svg PUBLIC "-//W3C//DTD SVG 20010904//EN"
 "http://www.w3.org/TR/2001/REC-SVG-20010904/DTD/svg10.dtd">
<svg version="1.0" xmlns="http://www.w3.org/2000/svg"
 width="1024.000000pt" height="1024.000000pt" viewBox="0 0 1024.000000 1024.000000"
 preserveAspectRatio="xMidYMid meet">

<g transform="translate(0.000000,1024.000000) scale(0.100000,-0.100000)"
fill="#000000" stroke="none">
<path d="M6400 6371 c-145 -45 -256 -198 -383 -531 -59 -154 -148 -435 -193
-610 -15 -58 -28 -107 -30 -109 -3 -3 -19 9 -37 26 -60 58 -92 68 -207 68 -97
0 -110 -2 -172 -32 -42 -20 -91 -54 -130 -93 l-63 -61 -197 -2 c-178 -2 -198
-1 -198 14 0 32 79 455 140 749 69 333 78 421 44 467 -33 45 -89 60 -175 45
-113 -19 -158 -44 -246 -135 -159 -164 -305 -376 -593 -858 -107 -178 -195
-326 -196 -327 -2 -2 -63 -10 -136 -18 -485 -51 -719 -138 -806 -302 -41 -76
-56 -160 -42 -233 6 -29 17 -60 25 -68 12 -12 16 -10 32 19 30 56 88 113 154
152 75 45 255 106 434 148 174 41 175 41 175 34 0 -11 -71 -125 -171 -274
-215 -321 -395 -475 -569 -488 -83 -6 -129 9 -173 55 -47 48 -61 38 -54 -39
14 -158 128 -266 292 -275 253 -15 459 212 829 918 57 110 82 148 99 152 44
11 496 77 527 77 29 0 31 -2 26 -27 -40 -197 -57 -695 -27 -813 20 -83 67
-174 106 -209 82 -71 210 -109 332 -98 115 11 135 43 50 81 -82 36 -117 90
-143 224 -17 87 -18 322 -4 497 10 121 40 388 44 392 5 6 327 36 332 31 3 -4
-6 -23 -20 -45 -69 -105 -133 -317 -143 -475 -10 -160 23 -272 104 -350 78
-76 196 -93 297 -44 94 46 212 189 300 364 20 39 37 72 39 72 1 0 2 -60 2
-132 0 -87 5 -147 14 -173 36 -103 101 -155 192 -155 181 0 359 209 637 749
l89 171 62 -145 c65 -151 96 -234 90 -239 -2 -1 -47 -17 -99 -35 -228 -78
-347 -159 -376 -257 -31 -108 12 -201 118 -253 233 -114 545 -7 659 226 33 66
34 70 34 200 l0 131 65 31 c36 17 94 49 130 73 80 52 211 181 229 226 12 29
12 35 -4 52 -30 33 -59 25 -100 -29 -60 -79 -155 -151 -284 -215 -40 -21 -76
-34 -80 -29 -4 4 -49 95 -100 201 -67 137 -95 207 -99 241 -4 49 -4 49 67 123
57 61 71 81 71 107 0 62 -78 100 -167 81 -142 -32 -249 -158 -261 -308 -4 -58
-15 -84 -90 -226 -178 -339 -305 -538 -392 -620 -56 -52 -82 -57 -106 -21 -34
51 -1 389 66 688 17 77 26 97 69 150 75 95 230 337 310 485 229 424 288 693
173 795 -43 39 -132 56 -192 38z m154 -231 c-4 -148 -143 -459 -347 -773 -38
-59 -71 -106 -73 -104 -7 6 117 400 173 551 95 257 178 401 227 394 19 -3 21
-9 20 -68z m-1900 -87 c-4 -21 -26 -119 -50 -218 -24 -99 -72 -322 -106 -496
l-63 -316 -220 -12 c-121 -7 -230 -15 -243 -18 -23 -6 -23 -5 9 58 182 362
488 857 612 992 54 58 70 61 61 10z m1063 -1033 c32 -30 36 -68 14 -167 -23
-106 -51 -175 -127 -315 -77 -141 -139 -233 -200 -296 -45 -46 -56 -53 -84
-50 -22 2 -40 12 -54 31 -32 43 -29 198 7 331 27 98 94 245 147 321 36 51 116
128 155 148 43 23 116 22 142 -3z m1068 -736 c-15 -85 -116 -174 -211 -189
-86 -13 -164 27 -164 85 0 65 103 135 292 199 l83 28 3 -46 c2 -25 1 -60 -3
-77z"/>
</g>
</svg>
